{
  "asset": {
    "version": "2.0"
  },
  "buffers": [
    {
      "uri": "data:application/octet-stream;base64,",
      "byteLength": 48
    }
  ],
  "bufferViews": [
    {
      "buffer": 0,
      "byteLength": 48,
      "byteStride": 16
    }
  ],
  "accessors": [
    {
      "componentType": 5126,
      "count": 3,
      "type": "VEC3",
      "min": [
        0,
        0,
        0
      ],
      "max": [
        2,
        3,
        0
      ],
      "bufferView": 0
    }
  ],
  "meshes": [
    {
      "primitives": [
        {
          "attributes": {
            "POSITION": 0
          }
        }
      ]
    }
  ],
  "nodes": [
    {
      "mesh": 0
    }
  ],
  "scenes": [
    {
      "nodes": [
        0
      ]
    }
  ],
  "scene": 0
}
