{
  "asset": {
    "version": "2.0",
    "generator": "Hyperion original shadow fixtures"
  },
  "bufferViews": [
    {
      "buffer": 0,
      "byteOffset": 0,
      "byteLength": 48
    },
    {
      "buffer": 0,
      "byteOffset": 48,
      "byteLength": 48
    },
    {
      "buffer": 0,
      "byteOffset": 96,
      "byteLength": 64
    },
    {
      "buffer": 0,
      "byteOffset": 160,
      "byteLength": 32
    },
    {
      "buffer": 0,
      "byteOffset": 192,
      "byteLength": 32
    },
    {
      "buffer": 0,
      "byteOffset": 224,
      "byteLength": 24
    }
  ],
  "accessors": [
    {
      "bufferView": 0,
      "componentType": 5126,
      "count": 4,
      "type": "VEC3",
      "min": [
        -1.2,
        0,
        0
      ],
      "max": [
        1.2,
        3,
        0
      ]
    },
    {
      "bufferView": 1,
      "componentType": 5126,
      "count": 4,
      "type": "VEC3",
      "min": [
        0,
        0,
        1
      ],
      "max": [
        0,
        0,
        1
      ]
    },
    {
      "bufferView": 2,
      "componentType": 5126,
      "count": 4,
      "type": "VEC4"
    },
    {
      "bufferView": 3,
      "componentType": 5126,
      "count": 4,
      "type": "VEC2"
    },
    {
      "bufferView": 4,
      "componentType": 5126,
      "count": 4,
      "type": "VEC2"
    },
    {
      "bufferView": 5,
      "componentType": 5125,
      "count": 6,
      "type": "SCALAR"
    }
  ],
  "scenes": [
    {
      "nodes": [
        0
      ]
    }
  ],
  "scene": 0,
  "nodes": [
    {
      "name": "UV1 alpha card",
      "mesh": 0
    }
  ],
  "materials": [
    {
      "name": "Thin double-sided sheet",
      "doubleSided": true,
      "pbrMetallicRoughness": {
        "baseColorFactor": [
          0.15,
          0.42,
          0.7,
          1
        ],
        "metallicFactor": 0,
        "roughnessFactor": 0.7
      }
    }
  ],
  "meshes": [
    {
      "primitives": [
        {
          "attributes": {
            "POSITION": 0,
            "NORMAL": 1,
            "COLOR_0": 2,
            "TEXCOORD_0": 3,
            "TEXCOORD_1": 4
          },
          "indices": 5,
          "material": 0
        }
      ]
    }
  ],
  "buffers": [
    {
      "byteLength": 248,
      "uri": "data:application/octet-stream;base64,"
    }
  ]
}
